<svg id="svg5364" xmlns="http://www.w3.org/2000/svg" viewBox="0 0 197.78 105.04"><defs><style>.cls-1{fill:none;stroke:#1d1d1b;stroke-linecap:round;stroke-linejoin:round;stroke-width:2.4px;}</style></defs><g id="layer1"><path id="path12" class="cls-1" d="M1.06,26.06C.84,36.32,2.36,36.71,1.43,47c.58,6.4-.29,13.42.12,20.1.05,9.38-.74,8.3-.4,15.86a19.68,19.68,0,0,0,2.19,9c1.32,2.81,3.16,6.73,7.21,8.28,4.34,1.66,9.55,4,13.73,3.59,7.46-.42,13.86.22,19.4-.38,6.74-.37,10.25.31,17,.38.93-.1,4.7-.22,6-.25" transform="translate(0.16 0)"/><path id="path14" class="cls-1" d="M66.66,103.53c11.56-.52,21.37.08,32.94-.07,11.38-.63,23.05,1.1,34.4-.12,10.79-.87,21.7.51,32.52-.07,5.82-.58,14.52,2.56,22.69-4.91.76-.7,3.4-2,4.7-4.43,1.44-2.67,1.54-6.5,1.72-7.81" transform="translate(0.16 0)"/><path id="path16" class="cls-1" d="M195.63,85.94c.37-5.77-.2-11.26.41-17-.13-8.61.11-17.77-.13-26.49-.46-9.3.16-11.74.48-18.82a23.42,23.42,0,0,0-1-8c-2-6.35-8.37-15.09-29.09-14.23-4.71.74-10.77-.37-15.56-.05q-.3,0-.6,0c-5.15-.37-13,.27-18.78.21-8.63.48-13.38-.57-22-.07-6.93.06-13.22.54-20.13-.22-1.35,0-2.7,0-4.06,0" transform="translate(0.16 0)"/><path id="path18" class="cls-1" d="M85,1.27c-6.72-.05-14,1.36-20.66.39-9.37-.7-18.16-.28-27.52-.31-6.57.16-11-.46-18.18,0A21.19,21.19,0,0,0,4,11.64C2.9,13.47.93,23.3,1.06,25.72" transform="translate(0.16 0)"/></g></svg>