<svg width="29" height="29" viewBox="0 0 29 29" fill="none" xmlns="http://www.w3.org/2000/svg">
<rect width="29" height="29" fill="white"/>
<path d="M19.2697 9.9169C18.5502 8.92151 17.7743 7.97727 17.0545 6.98138C16.5946 6.34503 15.9646 5.97866 15.4045 5.45247C14.0981 4.22521 12.6167 4 10.8763 4C9.18968 4 8.10087 5.072 6.77753 5.92643C5.53473 6.72887 4.75247 7.68462 4.01992 9.02249C3.33052 10.2815 3.13085 11.3637 3.13085 12.7989C3.13085 13.7432 2.72876 16.1073 3.33428 16.8582C3.83268 17.4762 4.18826 18.2648 4.54733 18.9834C5.04561 19.9804 5.69512 20.6191 6.38574 21.4755C7.31738 22.6308 8.69417 23.0844 10.0399 23.5395C11.3024 23.9665 12.8834 24.2365 14.1462 23.7077C15.8128 23.0099 17.6326 22.6927 19.0285 21.4755C20.4132 20.2682 22.0777 18.5702 22.4944 16.7206C22.6552 16.0066 22.0099 14.8706 21.304 14.8706C20.191 14.8706 19.7917 15.7589 19.1943 16.6594C19.0735 16.8415 18.2017 17.8864 18.795 17.7526C18.9674 17.7137 19.0772 17.5319 19.1642 17.3933C19.5414 16.7918 19.9928 16.2621 20.4902 15.7574C20.9268 15.3144 22.2697 13.6149 23.0218 14.3508C23.8391 15.1504 24.6516 16.014 25.5006 16.7741C25.8294 17.0684 26.1968 17.2553 26.4575 17.6226C26.6298 17.8654 26.7227 18.0793 27 18.173" stroke="#0047FF" stroke-width="3" stroke-linecap="round"/>
</svg>
