<svg width="27" height="54" viewBox="0 0 27 54" fill="none" xmlns="http://www.w3.org/2000/svg">
<path d="M3.30368 31.6159C2.33126 31.4577 2.75687 28.5426 2.7898 27.8378C2.85421 26.4596 2.74658 25.0693 2.81023 23.7073C2.94796 20.7602 2.38422 17.9585 2.04485 15.051C1.88847 13.7113 2.32162 12.7292 2.93509 11.5968C3.56567 10.4328 3.76513 10.3643 4.98464 10.4213C6.02033 10.4697 6.94582 9.97667 7.97593 10.0248C8.96719 10.0711 9.91904 9.78436 10.8823 9.8031C12.6632 9.83775 14.5601 9.82482 16.3264 10.0675C18.2142 10.3268 19.9632 10.7638 21.8804 10.8534C22.6728 10.8904 21.804 10.6255 21.4066 10.1162C20.7807 9.31403 21.0972 8.44492 20.7205 7.56152C20.2571 6.47493 19.6778 5.63241 19.1037 4.60584C18.6984 3.88106 18.1586 2.65448 17.4496 2.2443" stroke="white" stroke-width="3" stroke-linecap="round"/>
<path d="M23.2173 10.5227C22.5661 11.6055 21.5273 12.5091 20.597 13.3194C19.6472 14.1467 18.8638 15.1202 17.9813 16.0187C17.6189 16.3877 17.0618 16.803 16.6401 17.0955C16.1966 17.403 16.394 18.0237 15.8514 18.1872" stroke="white" stroke-width="3" stroke-linecap="round"/>
<path d="M25.0121 20.4565C25.4747 25.2224 25.079 30.0223 25.297 34.8233C25.387 36.8061 25.2926 38.7729 25.3823 40.7498C25.4025 41.1929 25.6433 41.8487 25.0559 41.8753C24.2863 41.9103 23.6143 42.0756 22.8829 42.331C20.9467 43.0071 18.9727 43.4395 16.9015 43.1777C15.0318 42.9414 12.992 42.6015 11.1042 42.6872C9.78783 42.7469 8.42925 42.5277 7.09656 42.5121C6.52873 42.5054 8.10257 40.8439 8.2172 40.6761C8.76673 39.8717 9.41165 39.0024 10.177 38.4451C10.3985 38.2838 10.3102 38.0481 10.4989 37.895C10.9843 37.5012 11.3685 37.065 11.7762 36.5874C12.5867 35.638 13.5487 34.7931 13.8111 33.5398C14.0048 32.6147 13.0814 34.2749 12.8847 34.4843C12.2692 35.1394 11.6345 35.9873 11.2446 36.7901C10.5581 38.2036 8.71088 38.8031 7.60656 39.8113C7.00461 40.3609 6.58236 41.1885 6.26386 41.9251C5.91536 42.7311 6.01181 42.2071 6.3877 43.0798C6.76624 43.9586 7.45175 44.7294 7.78836 45.6145C8.14581 46.5543 8.75509 47.5196 9.45826 48.2361C10.3959 49.1915 11.7747 50.038 12.5468 51.0908C12.7532 51.3724 13.0884 51.4031 13.2985 51.6914C13.622 52.1353 13.1952 52.0943 13.0262 51.7633C12.6015 50.9314 11.8455 49.8698 11.6051 49.0014C11.532 48.7374 11.0513 48.6621 10.857 48.48C10.4977 48.1434 10.2282 47.7347 9.8889 47.3835C9.40111 46.8785 8.73905 45.9943 8.41112 45.3978C8.16837 44.9562 7.31819 43.7516 6.7866 43.7757" stroke="white" stroke-width="3" stroke-linecap="round"/>
</svg>
