<svg width="44" height="32" viewBox="0 0 44 32" fill="none" xmlns="http://www.w3.org/2000/svg">
<path d="M4.59417 11.4669H2.10132L2.10125 17.5344C2.10125 18.4983 1.91776 20.0161 2.35187 20.7395C2.65267 21.2409 2.07544 22.3883 2.35187 22.3883H7.49996C8.92931 22.3883 11.2405 25.4953 12.5 26.0551C15.9584 27.5922 18.262 28.126 21.5697 30.0161C22.1234 30.3325 22.0446 26.7293 22.0446 26.0551V21.2539V16.4528C22.0446 14.6319 22.3561 12.4088 22.0314 10.6228C21.6531 8.54204 21.5697 6.24184 21.5697 4.10691C21.5697 3.65297 21.3524 1.77228 21.0421 2.02288C20.5855 2.39172 19.7373 2.83359 19.1955 3.10447C17.6313 3.8866 16.2148 4.93272 14.7373 5.90075C13.7119 6.57254 12.5856 7.02302 11.5717 7.66822C10.7569 8.18669 8.76178 8.74068 8.27419 9.59396C7.26181 11.3656 6.4826 11.4669 4.59417 11.4669Z" stroke="#0047FF" stroke-width="3" stroke-linecap="round"/>
<path d="M30.4659 9.05457C30.8376 9.05457 31.2665 9.75693 31.5245 10.015C32.1815 10.672 32.5151 11.4831 32.9215 12.2959C33.2264 12.9059 33.2758 13.2017 33.3198 13.862C33.3576 14.4286 33.7073 14.8022 33.7073 15.4063C33.7073 16.0272 33.7615 16.6305 33.489 17.2071C33.3503 17.5005 33.1926 17.7743 33.0415 18.0583C32.8545 18.41 33 18.8231 32.8123 19.1715C32.6202 19.5283 32.4515 19.9591 32.1684 20.252C31.8435 20.5881 31.5198 20.8567 31.3008 21.2779C31.14 21.5871 30.6471 22.1749 30.3677 22.3147" stroke="#0047FF" stroke-width="3" stroke-linecap="round"/>
<path d="M33.7073 2.2771C34.4593 2.5204 35.096 3.41436 35.6171 3.98509C36.1142 4.52945 36.6753 5.0289 37.1887 5.56211C37.7634 6.15889 38.0455 6.96696 38.6184 7.57568C39.2194 8.21426 39.5973 9.0021 40.1409 9.68747C40.6174 10.2883 41.0246 10.8258 41.1504 11.6083C41.2617 12.3012 41.4663 12.9737 41.5651 13.6655C41.7942 15.2694 41.9255 17.0127 41.3141 18.5603C41.0775 19.1592 40.9732 19.8284 40.7684 20.4429C40.6708 20.7355 40.3872 20.9652 40.2118 21.2123C39.9831 21.5345 39.8067 21.8958 39.5897 22.2273C38.8039 23.4279 38.13 24.722 37.2433 25.8506C36.7806 26.4395 36.3474 27.06 35.8463 27.6186C35.3498 28.1722 34.7162 28.6078 34.2475 29.1847C33.9432 29.5592 33.3407 29.6287 33.1179 30.0742" stroke="#0047FF" stroke-width="3" stroke-linecap="round"/>
</svg>
