<?xml version="1.0" encoding="utf-8"?>
<!-- Generator: Adobe Illustrator 26.0.0, SVG Export Plug-In . SVG Version: 6.00 Build 0)  -->
<svg version="1.1" id="Capa_1" xmlns="http://www.w3.org/2000/svg" xmlns:xlink="http://www.w3.org/1999/xlink" x="0px" y="0px"
	 viewBox="0 0 43 32" style="enable-background:new 0 0 43 32;" xml:space="preserve">
<style type="text/css">
	.st0{fill:none;stroke:#FFFFFF;stroke-width:3;stroke-linecap:round;}
</style>
<path class="st0" d="M30,11.5c1.9,1.9,3.3,4.2,5.7,5.5c1.2,0.6,5.7,3,5.7,4.5"/>
<path class="st0" d="M39.7,11c-2.9,2.1-5.5,5.8-7.2,9c-0.3,0.7-0.9,2.4-1.6,2.6"/>
<path class="st0" d="M4.6,11.5H2.1l0,6.1c0,1-0.2,2.5,0.3,3.2c0.3,0.5-0.3,1.6,0,1.6h5.1c1.4,0,3.7,3.1,5,3.7c3.5,1.5,5.8,2.1,9.1,4
	c0.6,0.3,0.5-3.3,0.5-4v-4.8v-4.8c0-1.8,0.3-4,0-5.8c-0.4-2.1-0.5-4.4-0.5-6.5c0-0.5-0.2-2.3-0.5-2.1c-0.5,0.4-1.3,0.8-1.8,1.1
	c-1.6,0.8-3,1.8-4.5,2.8c-1,0.7-2.2,1.1-3.2,1.8c-0.8,0.5-2.8,1.1-3.3,1.9C7.3,11.3,6.5,11.5,4.6,11.5z"/>
</svg>
